<svg xmlns="http://www.w3.org/2000/svg" width="49" height="49" viewBox="0 0 49 49">
  <g id="Group_154858" data-name="Group 154858" transform="translate(-0.273)">
    <rect id="Canvas" width="49" height="49" transform="translate(0.273)" fill="#ff13dc" opacity="0"/>
    <path id="Path_83582" data-name="Path 83582" d="M10,1V12.074H21.074Z" transform="translate(19.289 1.215)" fill="#707070"/>
    <path id="Path_83583" data-name="Path 83583" d="M22.379,17.739a1.445,1.445,0,0,1-1.491-1.395V1H4.491A1.445,1.445,0,0,0,3,2.395V44.241a1.445,1.445,0,0,0,1.491,1.395h32.8a1.445,1.445,0,0,0,1.491-1.395v-26.5ZM14.926,38.662a1.445,1.445,0,0,1-1.491,1.395H7.472a1.445,1.445,0,0,1-1.491-1.395v-5.58a1.445,1.445,0,0,1,1.491-1.395h5.963a1.445,1.445,0,0,1,1.491,1.395Zm0-11.159A1.445,1.445,0,0,1,13.435,28.9H7.472A1.445,1.445,0,0,1,5.981,27.5v-5.58a1.445,1.445,0,0,1,1.491-1.395h5.963a1.445,1.445,0,0,1,1.491,1.395Zm0-11.159a1.445,1.445,0,0,1-1.491,1.395H7.472a1.445,1.445,0,0,1-1.491-1.395v-5.58A1.445,1.445,0,0,1,7.472,9.369h5.963a1.445,1.445,0,0,1,1.491,1.395Z" transform="translate(3.708 1.215)" fill="#707070"/>
  </g>
</svg>
